<svg height="512pt" viewBox="0 -48 512 512" width="512pt" xmlns="http://www.w3.org/2000/svg"><path d="m464.90625 256h15.03125v64.125h-15.03125zm0 0"/><path d="m464.90625 336.15625h15.03125v16.03125h-15.03125zm0 0"/><path d="m128.25 95.1875c26.242188 0 47.59375-21.351562 47.59375-47.59375s-21.351562-47.59375-47.59375-47.59375-47.59375 21.351562-47.59375 47.59375 21.351562 47.59375 47.59375 47.59375zm0-80.15625c17.957031 0 32.5625 14.605469 32.5625 32.5625 0 17.953125-14.605469 32.5625-32.5625 32.5625-17.953125 0-32.5625-14.609375-32.5625-32.5625 0-17.957031 14.609375-32.5625 32.5625-32.5625zm0 0"/><path d="m136.265625 143.78125v51.207031l62.570313 62.316407 10.5-10.625-58.039063-57.917969v-44.980469zm0 0"/><path d="m104.203125 239.96875h15.03125v16.03125h-15.03125zm0 0"/><path d="m384.75 144.78125v64.125h-48.09375v64.128906h-48.09375v64.125h-48.09375v64.125h-33.0625v-100.304687l-32.0625-32.0625v-28.949219h-15.03125v35.175781l32.0625 32.0625v94.078125h-25.046875v-84.273437l-43.980469-43.976563h-19.144531v128.25h-25.046875v-273.535156h97.1875v51.207031l50.546875 50.292969 10.5-10.625-46.015625-45.894531v-60.011719h-122.347656l-69.027344 68.027344v83.269531h15.03125v-77.042969l49.09375-49.097656v34.855469l-24.046875 24.046875v67.238281h15.03125v-61.015625l9.015625-9.015625v207.300781h-64.125v15.027344h320.625v-15.027344h-65.125v-49.097656h105.203125v-15.027344h-57.109375v-49.097656h105.203125v-15.027344h-57.109375v-49.097656h105.203125v-15.03125h-57.109375v-49.09375h97.1875v241.472656h-160.3125v15.027344h175.34375v-271.53125zm-265.515625 145.390625 33.0625 33.066406v78.046875h-33.0625zm0 0"/><path d="m256.5 170.4375 71.890625-72.140625 31.3125 31.5625v-105.3125h-105.3125l31.5625 31.3125-72.140625 72.015625zm34.171875-130.859375h54v54l-16.28125-16.535156-72.015625 72.140625-21.371094-21.433594 72.171875-71.890625zm0 0"/></svg>